<svg xmlns="http://www.w3.org/2000/svg" width="16" height="16"><path fill="#42b983" fill-rule="evenodd" stroke="#359469" stroke-linecap="round" stroke-width=".5" d="M13.4 6.8h1.8q.7 0 .7.7v1.1q0 .8-.7.8h-1.8v5.4q0 .3-.2.6t-.6.3H9.4q-.8 0-.8-.5v-.6q0-.5.3-.6.2-.1.6-.1h.7V9.4H7.8q-.7 0-.7-.8V7.5q0-.3.2-.5a.7.7 0 0 1 .5-.2h2.4q.01-.2.13-.4.03-.2.1-.3l1-2.1h-2.9q-1 0-1-.8V1.5q0-.8 1.1-.8h5.2a1.6 1.6 0 0 1 .8.2.8.8 0 0 1 .5.6v1.7a.9.9 0 0 1-.3.8l-1.3 2.6q.06.1.07.2ZM3.6.7v1.6h2.5a.6.6 0 0 1 .6.7v6.1q0 .5-.3.8l-1.1 1.4L7 13.9q.2.3.2.5a.7.7 0 0 1-.3.6l-.8.6q-.3.2-.5.2-.3 0-.5-.2l-1.5-2.2-2 2.3a.5.5 0 0 1-.4.2.5.5 0 0 1-.4-.1l-.5-.5a.6.6 0 0 1-.2-.4.7.7 0 0 1 .2-.4l2.2-2.6-1.3-2a1.1 1.1 0 0 1-.1-.6v-4Q0 5.3 0 4.4V3.1q0-.8.9-.8V.7q0-.6.8-.6h1a.7.7 0 0 1 .9.6ZM5 8.8V5.3H3.6v3.5l.6.9.8-.9Z"/></svg>