<svg xmlns="http://www.w3.org/2000/svg" width="800" height="400" viewBox="0 0 242.852 47.32">
  <path 
    fill-rule="evenodd" 
    stroke="#666666"
    stroke-linecap="round" 
    stroke-width=".945" 
    d="m183.57 4.468-.147.39h9.351a2.647 2.647 0 0 1 3.32 2.539v3.907q0 2.295-2.832 2.514v13.306q0 2.344-.781 3.125l-3.394 3.418 6.519 6.543a2.373 2.373 0 0 1 .83 1.636 3.778 3.778 0 0 1-1.05 2.099l-2.002 2.491a2.507 2.507 0 0 1-2.075.878 2.94 2.94 0 0 1-1.856-1.074l-6.518-6.445-6.665 6.641q-.562.561-1.148.561a1.357 1.357 0 0 1-1.001-.342l-1.684-1.66q-.171-.195-.415-.464l-1.49 1.758q-.537.635-1.342.635a1.145 1.145 0 0 1-.806-.318l-5.469-4.809a1.509 1.509 0 0 1-.634-1.026q0-.39.634-1.147l1.612-2.002a1.966 1.966 0 0 1 1.391-.879q.708 0 1.782.928l4.712 4.053q.098.097.318.463l6.396-6.201-5.42-5.346a3.979 3.979 0 0 1-.976-2.93v-6.25a5.503 5.503 0 0 1 .122-1.172l-1.221-.439a2.938 2.938 0 0 1-.928-.513v13.33a8.244 8.244 0 0 1-.147 2.09.245.245 0 0 1-.048.083.591.591 0 0 1-.391.122h-2.539q-.781 0-.781-.781V11.865h-8.081v21.558q0 1.562-2.148 1.562h-2.906a1.984 1.984 0 0 1-2.537-1.476 1.846 1.846 0 0 1-.002-.086V4.639q0-.367.098-.757.342-1.758 1.855-1.758h15.088q1.416 0 1.953.635a3.611 3.611 0 0 1 .586 2.27v10.547l4.663-14.038q.269-.83 1.172-1.269A2.431 2.431 0 0 1 177.637 0a3.206 3.206 0 0 1 1.05.195l3.515 1.148a2.099 2.099 0 0 1 1.49 2.197 3.127 3.127 0 0 1-.122.928ZM73.316 43.262l-.244-.22a.803.803 0 0 1-.245.049l-4.101.244v.928a1.542 1.542 0 0 1-.879 1.66q-.83.293-2.051.293H61.89a2.962 2.962 0 0 1-2.441-.671.765.765 0 0 1-.123-.428l.025-.854v-.391l-7.031.391-.684.049a1.611 1.611 0 0 1-.684-.147q-.024-.024-.073-.146-.195-.44-.317-.928l-.391-1.563a.803.803 0 0 1-.049-.244 1.483 1.483 0 0 1 1.807-1.123l7.422-.488v-2.637h-5.86a1.653 1.653 0 0 1-2.148-1.367v-2.734q0-.342.391-.806a19.347 19.347 0 0 0 .586-.757l1.074-3.125h-.488q-1.539 0-2.149-.684a1.891 1.891 0 0 1-.586-1.269v-3.711q0-.342.464-.928.659-.83 2.271-.83h3.051l.269-.781a5.424 5.424 0 0 1 .195-.317h-4.59a1.818 1.818 0 0 1-2.148-1.954v-3.784a2.089 2.089 0 0 1 2.148-2.539h6.568a2.084 2.084 0 0 1-.147-.781V9.204h-6.103q-1.563 0-1.563-1.367v-2.93q0-1.562 1.563-1.562h6.103V1.88a1.79 1.79 0 0 1 .513-1.172 1.379 1.379 0 0 1 1.05-.586h6.543a1.09 1.09 0 0 1 .879.464 2.039 2.039 0 0 1 .488 1.294v1.465h5.249a1.835 1.835 0 0 1 1.172.488q.586.488.586 1.074v2.93a1.09 1.09 0 0 1-.464.879 1.975 1.975 0 0 1-1.294.488h-5.249v1.465a2.455 2.455 0 0 1-.122.781h9.155l-.854-7.422a10.491 10.491 0 0 1-.098-1.22q0-1.954 2.344-2.222l2.368-.293q1.098-.122 1.245-.122 2.148 0 2.539 3.442l.903 7.837h8.252q2.149 0 2.149 2.344v3.784q0 2.149-2.149 2.149h-2.929l2.124 1.538a1.358 1.358 0 0 1 .683 1.147q0 .586-.537 1.343l-5.322 7.422 1.098 9.594h5.079a3.064 3.064 0 0 1 1.831.342 2.201 2.201 0 0 1 .512 1.612v1.953a1.918 1.918 0 0 1-2.343 1.953h-9.375a3.759 3.759 0 0 1-3.412-1.247 2.153 2.153 0 0 1-.299-.902l-.367-3.173-2.124 2.929a1.971 1.971 0 0 1-1.489 1.026q-.439 0-.903-.342l-2.368-1.66Zm67.236-27.149h-11.597v4.517h14.209q2.149 0 2.149 1.562v2.93q0 1.563-2.149 1.563h-17.138l-16.773 18.872q-1.074 1.22-2.392 1.22a3.149 3.149 0 0 1-1.954-.976l-2.978-2.686a3.17 3.17 0 0 1-1.221-2.417q0-1.001.635-1.684l11.572-12.329h-10.522q-2.149 0-2.149-1.563v-2.93q0-1.562 2.149-1.562h15.283v-4.517h-8.105l-.831 2.075a2.691 2.691 0 0 1-2.514 2.051 1.638 1.638 0 0 1-.44-.049l-3.1-1.196a1.939 1.939 0 0 1-1.123-2.075 3.376 3.376 0 0 1 .293-1.172l5.053-12.768q.757-1.954 2.247-1.954.341 0 .781.171l2.856 1.075a1.874 1.874 0 0 1 1.221 1.953q0 .659-.22 1.22l-.635 1.636h4.517V2.954a2.405 2.405 0 0 1 .977-1.953 3.635 3.635 0 0 1 2.343-.781h4.248q1.563 0 2.637.781a2.338 2.338 0 0 1 1.074 1.953V7.08h11.597q2.734 0 2.734 2.734v3.37q0 .878-.634 1.757a2.529 2.529 0 0 1-2.1 1.172ZM17.456 14.355H13.33v12.696a11.739 11.739 0 0 1-.293 2.734 23.31 23.31 0 0 1-.609 1.754 133.254 133.254 0 0 1-.074.199L7.593 44.604a3.458 3.458 0 0 1-1.123 1.441 1.943 1.943 0 0 1-1.27.439 1.913 1.913 0 0 1-.732-.122l-3.54-1.367q-.903-.342-.903-1.782a5.223 5.223 0 0 1 .317-1.734l4.785-13.061V14.355H3.491a3.314 3.314 0 0 1-1.953-.683q-.976-.708-.976-1.856V6.934a2.239 2.239 0 0 1 .976-1.758 3.127 3.127 0 0 1 1.953-.781h1.636V2.563A1.918 1.918 0 0 1 7.08.22h4.297q1.953 0 1.953 2.343v1.832h7.447q2.929 0 2.929 2.539v34.375a8.045 8.045 0 0 1-.488 3.125 2.369 2.369 0 0 1-2.441 1.171H13.33q-1.44 0-2.099-.244-.635-.244-.635-1.123v-1.953a1.075 1.075 0 0 1 .684-1.147q.683-.22 2.05-.22h4.126V14.355Zm22.046 30.249h-5.664q-.61 1.368-1.367 1.368h-5.078a1.682 1.682 0 0 1-1.367-1.172q-.586-1.148-.586-2.344V6.738q0-1.22.586-2.343.61-1.172 1.562-1.172h14.063a2.816 2.816 0 0 1 2.734 3.515v36.695q0 .781-.391 1.562-.39.781-.781.781h-2.734a.973.973 0 0 1-.977-1.172ZM74.39 39.38l4.809-6.69-1.489-12.963H61.353l1.904.512q.44.244.659.586h8.13a2.457 2.457 0 0 1 2.051.684 2.007 2.007 0 0 1 .488 1.074v3.711q0 .537-.39 1.123a2.382 2.382 0 0 1-2.149.83H61.304l-1.758 4.102h4.492V30.2a1.342 1.342 0 0 1 .977-1.758h2.93a1.342 1.342 0 0 1 .976 1.758v2.149h3.711a2.6 2.6 0 0 1 1.172.293 2.64 2.64 0 0 1 .195 1.074v1.953q0 1.367-1.367 1.367h-3.906v2.026l3.906-.268h.098a1.968 1.968 0 0 1 1.66.586Zm76.562 2.515 9.009-8.326v-18.75a1.333 1.333 0 0 1 .562-1.172q.512-.39 1.172-.39h1.977a1.37 1.37 0 0 1 1.538 1.562v17.383q0 3.565-.268 4.151a6.995 6.995 0 0 1-1.66 2.001l-8.545 7.862a2.921 2.921 0 0 1-1.734.976 2.372 2.372 0 0 1-1.489-.927l-1.318-1.416a1.668 1.668 0 0 1-.464-1.148q0-.659 1.22-1.806Zm58.57-33.106v21.069a2.404 2.404 0 0 1-.806 2.198q-.635.39-1.611.39h-3.174a2.821 2.821 0 0 1-1.758-.488 2.54 2.54 0 0 1-.659-2.1V8.789a2.373 2.373 0 0 1 .806-2.173q.634-.39 1.611-.39h3.174q1.123 0 1.758.463a2.584 2.584 0 0 1 .659 2.1Zm16.65 0v21.069a2.404 2.404 0 0 1-.806 2.198q-.634.39-1.611.39h-3.174a2.821 2.821 0 0 1-1.758-.488 2.54 2.54 0 0 1-.659-2.1V8.789a2.373 2.373 0 0 1 .806-2.173q.635-.39 1.611-.39h3.174q1.123 0 1.758.463a2.584 2.584 0 0 1 .659 2.1Zm16.651 0v21.069a2.404 2.404 0 0 1-.806 2.198q-.635.39-1.611.39h-3.174a2.821 2.821 0 0 1-1.758-.488 2.54 2.54 0 0 1-.659-2.1V8.789a2.373 2.373 0 0 1 .805-2.173q.635-.39 1.612-.39h3.174q1.123 0 1.757.463a2.584 2.584 0 0 1 .66 2.1ZM34.424 39.526h5.078V16.113h-5.078v23.413Zm106.494 6.47-13.623-13.867q-.879-.879-.879-1.587a1.486 1.486 0 0 1 .513-1.099l1.489-1.391q.586-.562 1.074-.562.708 0 1.587.928l13.355 13.818q.757.757.757 1.563 0 .732-.391 1.123l-1.318 1.294q-.537.537-1.05.537-.781 0-1.514-.757Zm46.948-32.153h-7.446l-1.636 4.883h.855a2.261 2.261 0 0 1 2.344 2.734v5.078l3.393 3.394 2.49-2.417V13.843Zm21.656 24.536v2.856a2.404 2.404 0 0 1-.806 2.198q-.635.39-1.611.39h-3.174a2.821 2.821 0 0 1-1.758-.488 2.54 2.54 0 0 1-.659-2.1v-2.856a2.404 2.404 0 0 1 .806-2.197 3.19 3.19 0 0 1 1.611-.367h3.174q1.123 0 1.733.464.684.489.684 2.1Zm16.65 0v2.856a2.404 2.404 0 0 1-.806 2.198q-.634.39-1.611.39h-3.174a2.821 2.821 0 0 1-1.758-.488 2.54 2.54 0 0 1-.659-2.1v-2.856a2.404 2.404 0 0 1 .806-2.197 3.19 3.19 0 0 1 1.611-.367h3.174q1.123 0 1.734.464.683.489.683 2.1Zm16.651 0v2.856a2.404 2.404 0 0 1-.806 2.198q-.635.39-1.611.39h-3.174a2.821 2.821 0 0 1-1.758-.488 2.54 2.54 0 0 1-.659-2.1v-2.856a2.404 2.404 0 0 1 .805-2.197 3.19 3.19 0 0 1 1.612-.367h3.174q1.123 0 1.733.464.684.489.684 2.1ZM91.699 2.002l2.735 4.126a2.276 2.276 0 0 1 .488 1.221 1.956 1.956 0 0 1-1.123 1.391l-2.612 1.685a2.331 2.331 0 0 1-1.221.439q-.586 0-1.269-1.025l-2.613-3.98a2.428 2.428 0 0 1-.488-1.294q0-.634.854-1.171l2.71-1.758a2.648 2.648 0 0 1 1.246-.513 1.616 1.616 0 0 1 1.293.879Zm-3.1 17.725h-2.442l.318 2.832 1.562-2.198q.269-.341.562-.634Z" 
    fill="none"
  />
</svg>