<svg xmlns="http://www.w3.org/2000/svg" width="800" height="400" viewBox="0 0 285.264 47.449">
  <path 
    fill-rule="evenodd" 
    stroke="#666666"
    stroke-linecap="round" 
    stroke-width=".945" 
    d="m171.635 43.199-.244-.22a.803.803 0 0 1-.244.049l-4.101.244v.928a1.542 1.542 0 0 1-.879 1.66q-.83.293-2.051.293h-3.906a2.962 2.962 0 0 1-2.441-.671.765.765 0 0 1-.123-.428l.025-.854v-.391l-7.032.391-.683.048a1.611 1.611 0 0 1-.684-.146q-.024-.024-.073-.147-.195-.439-.318-.927l-.39-1.563a.803.803 0 0 1-.049-.244 1.483 1.483 0 0 1 1.807-1.123l7.422-.488v-2.637h-5.86a1.653 1.653 0 0 1-2.148-1.367v-2.734q0-.342.39-.806a19.347 19.347 0 0 0 .586-.757l1.075-3.125h-.489q-1.538 0-2.148-.684a1.891 1.891 0 0 1-.586-1.269V22.52q0-.342.464-.928.659-.83 2.27-.83h3.052l.269-.781a5.424 5.424 0 0 1 .195-.317h-4.59a1.818 1.818 0 0 1-2.148-1.954v-3.784a2.089 2.089 0 0 1 2.148-2.539h6.567a2.084 2.084 0 0 1-.146-.781V9.141h-6.104q-1.562 0-1.562-1.367v-2.93q0-1.562 1.562-1.562h6.104V1.817a1.79 1.79 0 0 1 .513-1.172 1.379 1.379 0 0 1 1.049-.586h6.543a1.09 1.09 0 0 1 .879.464 2.039 2.039 0 0 1 .489 1.294v1.465h5.249a1.835 1.835 0 0 1 1.171.488q.586.488.586 1.074v2.93a1.09 1.09 0 0 1-.463.879 1.975 1.975 0 0 1-1.294.488h-5.249v1.465a2.455 2.455 0 0 1-.123.781h9.156l-.855-7.422a10.491 10.491 0 0 1-.097-1.22q0-1.954 2.343-2.222l2.369-.293q1.098-.122 1.245-.122 2.148 0 2.539 3.442l.903 7.837h8.252q2.148 0 2.148 2.344v3.784q0 2.149-2.148 2.149h-2.93l2.124 1.538a1.358 1.358 0 0 1 .684 1.147q0 .586-.537 1.343l-5.322 7.422 1.098 9.594h5.078a3.064 3.064 0 0 1 1.831.342 2.201 2.201 0 0 1 .513 1.612v1.953a1.918 1.918 0 0 1-2.344 1.953h-9.375a3.759 3.759 0 0 1-3.411-1.247 2.153 2.153 0 0 1-.3-.902l-.366-3.173-2.124 2.929a1.971 1.971 0 0 1-1.489 1.026q-.44 0-.903-.342l-2.369-1.66ZM82.695 1.817v9.326h7.373q1.294 0 1.709.586a4.333 4.333 0 0 1 .439 2.344v2.929a4.333 4.333 0 0 1-.439 2.344 1.995 1.995 0 0 1-1.709.586H61.552l-.219 4.981h23.803q2.588 0 2.588 2.709V45.64q0 1.563-1.562 1.563h-2.198a1.302 1.302 0 0 1-1.367-1.563V29.209H61.162l-.659 15.186a4.427 4.427 0 0 1-.342 1.807 1.401 1.401 0 0 1-1.231.665 1.99 1.99 0 0 1-.161-.006h-.146l-6.397-.293a1.696 1.696 0 0 1-1.671-2.037 5.213 5.213 0 0 1 .011-.331l.024-.245 1.783-41.113A2.246 2.246 0 0 1 54.655.227a3.773 3.773 0 0 1 .159.003l4.736.195a2.239 2.239 0 0 1 2.759 2.027 19.413 19.413 0 0 1-.024.805l-.342 7.886h15.332V1.817q0-1.563 1.367-1.563h2.49q1.563 0 1.563 1.563ZM16.777 9.41l.195-.22H9.184v31.567h27.783V9.19H19.829l2.856 1.855q.391.244.586.708h8.521q2.27 0 2.27 2.149v5.737a4.127 4.127 0 0 1-.366 2.051q-.293.464-1.294.781l2.295.855q1.099.415 1.343.708a1.133 1.133 0 0 1 .195.683q0 .269-.122.611l-.977 2.685q-.293.83-1.001.83a3.357 3.357 0 0 1-1.049-.268l-9.082-3.467L20 26.353l10.571 2.637q1.733.415 1.782 1.172a.637.637 0 0 1 .006.09 1.148 1.148 0 0 1-.055.325l-.659 3.198q-.171.879-1.172.879a5.098 5.098 0 0 1-1.22-.22l-11.988-2.637a1.591 1.591 0 0 1-1.587-1.123 1.671 1.671 0 0 1 .049-.317l.098-.708.488-2.149-3.223 1.026q-.732.22-1.342.22a.975.975 0 0 1-1.099-.611l-.391-1.245a1.173 1.173 0 0 1-.048-.366 1.644 1.644 0 0 1 1.44-1.441l6.714-2.172q-.855-.489-.855-1.099 0-.269.171-.61l.83-1.783-2.197 2.93q-.806 1.05-1.88 1.05-.244 0-.537-.122-.757-.318-1.001-.537l-1.904-1.636a2.918 2.918 0 0 1-1.221-2.051 2.849 2.849 0 0 1 .757-1.66l6.25-7.983Zm98.999 4.882h-4.126v12.696a11.739 11.739 0 0 1-.293 2.734 23.31 23.31 0 0 1-.609 1.754 133.254 133.254 0 0 1-.075.199l-4.76 12.866a3.458 3.458 0 0 1-1.123 1.441 1.943 1.943 0 0 1-1.27.439 1.913 1.913 0 0 1-.732-.122l-3.54-1.367q-.904-.342-.904-1.782a5.223 5.223 0 0 1 .318-1.734l4.785-13.061V14.292h-1.636a3.314 3.314 0 0 1-1.953-.683q-.977-.708-.977-1.856V6.871a2.239 2.239 0 0 1 .977-1.758 3.127 3.127 0 0 1 1.953-.782h1.636V2.5A1.918 1.918 0 0 1 105.4.157h4.297q1.953 0 1.953 2.343v1.831h7.446q2.93 0 2.93 2.54v34.375a8.045 8.045 0 0 1-.488 3.125 2.369 2.369 0 0 1-2.442 1.171h-7.446q-1.44 0-2.1-.244-.634-.244-.634-1.123v-1.953a1.075 1.075 0 0 1 .683-1.147q.684-.22 2.051-.22h4.126V14.292ZM37.163 45.64H8.403a3.1 3.1 0 0 1-2.148.977H2.934q-1.172 0-2.051-.879-.878-.879-.878-2.051V5.235a3.351 3.351 0 0 1 .878-2.442q.879-.879 2.051-.879h35.718q3.516 0 3.516 3.125v39.82q0 1.953-1.954 1.953h-1.489a1.402 1.402 0 0 1-1.562-1.172Zm180.322-1.514V33.97h-5.737q-.513.391-1.758.391h-5.982q-1.489 0-2.392-1.026a3.001 3.001 0 0 1-.733-2.099V9.605a3.286 3.286 0 0 1 .489-1.733q.415-.684 1.123-1.124.464-.293.659-.293l.854.025h13.477V3.16a2.887 2.887 0 0 1 .977-2.246 3.715 3.715 0 0 1 2.539-.855h2.758q3.516 0 3.516 3.101v3.32h10.376q1.563 0 2.612 1.05a2.75 2.75 0 0 1 .904 2.075v23.193q0 1.563-1.563 1.563h-1.514a2.075 2.075 0 0 1-1.367-.391h-9.448v10.156a3.096 3.096 0 0 1-1.172 2.442q-1.025.879-2.344.879h-2.758a3.445 3.445 0 0 1-2.613-1.05 3.131 3.131 0 0 1-.903-2.271Zm-79.663.415h-5.664q-.611 1.368-1.367 1.368h-5.078a1.682 1.682 0 0 1-1.368-1.172q-.586-1.148-.586-2.344V6.675q0-1.22.586-2.344.611-1.171 1.563-1.171h14.062a2.816 2.816 0 0 1 2.735 3.515V43.37q0 .781-.391 1.562t-.781.781h-2.735a.973.973 0 0 1-.976-1.172Zm34.888-5.224 4.809-6.69-1.489-12.963h-16.358l1.905.512q.439.244.659.586h8.13a2.457 2.457 0 0 1 2.051.684 2.007 2.007 0 0 1 .488 1.074v3.711q0 .537-.391 1.123a2.382 2.382 0 0 1-2.148.83h-10.742l-1.758 4.102h4.492v-2.149a1.342 1.342 0 0 1 .977-1.758h2.929a1.342 1.342 0 0 1 .977 1.758v2.149h3.711a2.6 2.6 0 0 1 1.172.293 2.64 2.64 0 0 1 .195 1.074v1.953q0 1.367-1.367 1.367h-3.906v2.026l3.906-.268h.097a1.968 1.968 0 0 1 1.661.586Zm-39.966.146h5.078V16.05h-5.078v23.413ZM14.726 33.311l16.504 3.76a1.499 1.499 0 0 1 1.465 1.123v.073l-.269 1.44q-.17 1.001-1.025 1.001-.391 0-.708-.073l-16.235-3.76a1.672 1.672 0 0 1-1.685-1.123 3.247 3.247 0 0 1 .098-.732l.244-.903a1.054 1.054 0 0 1 1.074-.904 1.885 1.885 0 0 1 .537.098Zm221.997-15.698h-9.448v11.914h9.448V17.613Zm-24.756 11.914h5.518V17.613h-5.518v11.914Zm45.484 7.397v2.857a2.404 2.404 0 0 1-.806 2.197q-.635.391-1.611.391h-3.174a2.821 2.821 0 0 1-1.758-.489 2.54 2.54 0 0 1-.659-2.099v-2.857a2.404 2.404 0 0 1 .806-2.197q.634-.391 1.611-.391h3.174a2.713 2.713 0 0 1 1.733.489q.684.488.684 2.099Zm13.891 0v2.857a2.404 2.404 0 0 1-.805 2.197q-.635.391-1.612.391h-3.173a2.821 2.821 0 0 1-1.758-.489 2.54 2.54 0 0 1-.659-2.099v-2.857a2.404 2.404 0 0 1 .805-2.197q.635-.391 1.612-.391h3.173a2.713 2.713 0 0 1 1.734.489q.683.488.683 2.099Zm13.892 0v2.857a2.404 2.404 0 0 1-.806 2.197q-.634.391-1.611.391h-3.174a2.821 2.821 0 0 1-1.758-.489 2.54 2.54 0 0 1-.659-2.099v-2.857a2.404 2.404 0 0 1 .806-2.197q.635-.391 1.611-.391h3.174a2.713 2.713 0 0 1 1.733.489q.684.488.684 2.099ZM190.019 1.939l2.735 4.126a2.276 2.276 0 0 1 .488 1.221 1.956 1.956 0 0 1-1.123 1.391l-2.613 1.685a2.331 2.331 0 0 1-1.22.439q-.586 0-1.27-1.025l-2.612-3.98a2.428 2.428 0 0 1-.488-1.294q0-.634.854-1.172l2.71-1.757a2.648 2.648 0 0 1 1.245-.513 1.616 1.616 0 0 1 1.294.879ZM29.79 17.637h-9.937l-.195.269q.195-.049.22-.049.39 0 1.196.39l5.469 2.027 3.247-1.026v-1.611Zm157.129 2.027h-2.442l.318 2.832 1.562-2.198q.269-.342.562-.634Z" 
    fill="none"
  />
</svg>